<svg xmlns="http://www.w3.org/2000/svg" viewBox="0 0 800 600" width="100%" height="100%" style="background-color: #0c1a1a; font-family: system-ui, -apple-system, sans-serif;">
<defs>
<pattern id="grid" width="40" height="40" patternUnits="userSpaceOnUse">
<path d="M 40 0 L 0 0 0 40" fill="none" stroke="#162e2e" stroke-width="1" />
</pattern>
<filter id="glow" x="-20%" y="-20%" width="140%" height="140%">
<feGaussianBlur stdDeviation="6" result="blur" />
<feComposite in="SourceGraphic" in2="blur" operator="over" />
</filter>
</defs>
<rect width="100%" height="100%" fill="url(#grid)" />
<path d="M150,220 Q200,180 300,200 T500,190 T700,230 Q650,350 550,380 T300,420 Z" fill="#102626" opacity="0.4" />
<g transform="translate(40, 40)" stroke="#c5a880" stroke-width="1.5" fill="none">
<path d="M 0,0 L 30,0 M 0,0 L 0,30" opacity="0.5" />
<path d="M 15,15 Q 15,5 15,5 Q 15,15 25,15 Q 15,15 15,25 Q 15,15 5,15 Z" fill="#c5a880" stroke="none" />
</g>
<g transform="translate(760, 40)" stroke="#c5a880" stroke-width="1.5" fill="none">
<path d="M 0,0 L -30,0 M 0,0 L 0,30" opacity="0.5" />
<circle cx="-15" cy="15" r="3" fill="#c5a880" />
</g>
<g transform="translate(40, 560)" stroke="#c5a880" stroke-width="1.5" fill="none">
<path d="M 0,0 L 30,0 M 0,0 L 0,-30" opacity="0.5" />
<circle cx="15" cy="-15" r="3" fill="#c5a880" />
</g>
<g transform="translate(760, 560)" stroke="#c5a880" stroke-width="1.5" fill="none">
<path d="M 0,0 L -30,0 M 0,0 L 0,-30" opacity="0.5" />
<path d="M -15,-15 Q -15,-25 -15,-25 Q -15,-15 -5,-15 Q -15,-15 -15,-5 Q -15,-15 -25,-15 Z" fill="#c5a880" stroke="none" />
</g>
<g stroke="#1d4d4d" stroke-width="2" fill="none">
<path d="M 250,380 L 320,260 L 480,260 L 550,380" stroke="#c5a880" stroke-width="2.5" stroke-dasharray="4,4" />
<line x1="320" y1="260" x2="400" y2="150" stroke="#1da194" stroke-width="3" />
<line x1="480" y1="260" x2="400" y2="150" stroke="#1da194" stroke-width="3" />
<line x1="250" y1="380" x2="180" y2="280" />
<line x1="250" y1="380" x2="350" y2="450" />
<line x1="550" y1="380" x2="620" y2="280" />
<line x1="550" y1="380" x2="450" y2="450" />
<path d="M 180,280 L 120,320 M 620,280 L 680,320" opacity="0.5" />
<path d="M 350,450 L 400,500 L 450,450" opacity="0.5" />
</g>
<circle cx="400" cy="150" r="14" fill="#0c1a1a" stroke="#1da194" stroke-width="4" filter="url(#glow)" />
<circle cx="400" cy="150" r="5" fill="#c5a880" />
<circle cx="320" cy="260" r="10" fill="#0c1a1a" stroke="#c5a880" stroke-width="3" />
<circle cx="480" cy="260" r="10" fill="#0c1a1a" stroke="#c5a880" stroke-width="3" />
<circle cx="250" cy="380" r="12" fill="#1da194" stroke="#0c1a1a" stroke-width="2" />
<circle cx="550" cy="380" r="12" fill="#1da194" stroke="#0c1a1a" stroke-width="2" />
<circle cx="180" cy="280" r="7" fill="#163838" stroke="#1da194" stroke-width="2" />
<circle cx="620" cy="280" r="7" fill="#163838" stroke="#1da194" stroke-width="2" />
<circle cx="350" cy="450" r="7" fill="#163838" stroke="#c5a880" stroke-width="1.5" />
<circle cx="450" cy="450" r="7" fill="#163838" stroke="#c5a880" stroke-width="1.5" />
<g transform="translate(400, 310)">
<path d="M 0,-25 L 18,0 L 0,25 L -18,0 Z" fill="none" stroke="#c5a880" stroke-width="1.5" opacity="0.7" />
<path d="M 0,-15 L 11,0 L 0,15 L -11,0 Z" fill="#c5a880" opacity="0.3" />
</g>
<circle cx="380" cy="220" r="2" fill="#c5a880" opacity="0.6" />
<circle cx="420" cy="220" r="2" fill="#c5a880" opacity="0.6" />
<circle cx="290" cy="320" r="1.5" fill="#1da194" />
<circle cx="510" cy="320" r="1.5" fill="#1da194" />
<text x="400" y="520" text-anchor="middle" fill="#f5f0e6" font-size="26" font-weight="700" letter-spacing="3">ḤANAFĪ ATLAS</text>
<text x="400" y="545" text-anchor="middle" fill="#c5a880" font-size="12" font-weight="500" letter-spacing="5" opacity="0.8">GEOGRAPHIC &amp; BIOGRAPHICAL NETWORK</text>
</svg>
